<svg width="111" height="15" viewBox="0 0 111 15" fill="none" xmlns="http://www.w3.org/2000/svg">
<rect width="111" height="15" fill="#E5E5E5"/>
<g id="Education Platform Website - Lesson" clip-path="url(#clip0_0_1)">
<rect width="1440" height="5109" transform="translate(-135 -4925)" fill="white"/>
<g id="Footer">
<rect id="BG" x="-135" y="-244" width="1440" height="428" fill="#2E2100"/>
<g id="Group 17522">
<g id="Social">
<g id="Twitter">
<path id="twitter" d="M5.64991 15C3.57026 15 1.63168 14.3864 0 13.3276C1.38535 13.4185 3.83019 13.2007 5.35087 11.7292C3.06326 11.6227 2.0316 9.8428 1.89703 9.08215C2.0914 9.15822 3.01841 9.24949 3.54172 9.03651C0.91022 8.36714 0.506525 6.02434 0.596235 5.30933C1.08964 5.65923 1.92694 5.78093 2.25587 5.75051C-0.196205 3.97059 0.685945 1.2931 1.11954 0.71501C2.87924 3.18826 5.51649 4.57733 8.7791 4.65459C8.71759 4.38089 8.6851 4.09593 8.6851 3.80325C8.6851 1.70277 10.3586 0 12.423 0C13.5016 0 14.4735 0.46484 15.1558 1.20837C15.8766 1.03703 16.9613 0.635914 17.4916 0.289047C17.2243 1.26268 16.3922 2.07488 15.8888 2.37592C15.8847 2.36563 15.893 2.38616 15.8888 2.37592C16.331 2.30807 17.5274 2.07481 18 1.74949C17.7663 2.29647 16.884 3.20591 16.16 3.71506C16.2947 9.74221 11.7492 15 5.64991 15Z" fill="white"/>
</g>
<g id="Facebook">
<path id="f" d="M44.4103 8.37379L44.8767 5.67961H41.9589V3.93204C41.9589 3.1948 42.3657 2.47573 43.6726 2.47573H45V0.182039C45 0.182039 43.7959 0 42.6452 0C40.2411 0 38.6712 1.29064 38.6712 3.62621V5.67961H36V8.37379H38.6712V14.8871C39.2075 14.9618 39.7562 15 40.3151 15C40.874 15 41.4226 14.9618 41.9589 14.8871V8.37379H44.4103Z" fill="white"/>
</g>
<g id="Linkedin">
<g id="linked_in">
<path d="M66.6186 1.81302C66.6186 2.81432 65.8085 3.62603 64.8093 3.62603C63.81 3.62603 63 2.81432 63 1.81302C63 0.811715 63.81 0 64.8093 0C65.8085 0 66.6186 0.811715 66.6186 1.81302Z" fill="white"/>
<path d="M63.2474 4.95868H66.3402V15H63.2474V4.95868Z" fill="white"/>
<path d="M71.3196 4.95868H68.2268V15H71.3196C71.3196 15 71.3196 11.8388 71.3196 9.86235C71.3196 8.67602 71.6977 7.4845 73.2062 7.4845C74.911 7.4845 74.9008 9.037 74.8928 10.2397C74.8824 11.8119 74.9072 13.4163 74.9072 15H78V9.70041C77.9738 6.31647 77.1508 4.75723 74.4433 4.75723C72.8354 4.75723 71.8387 5.53935 71.3196 6.24696V4.95868Z" fill="white"/>
</g>
</g>
<g id="Instagram">
<g id="instagram">
<path d="M108.75 3.375C108.75 3.99632 108.246 4.5 107.625 4.5C107.004 4.5 106.5 3.99632 106.5 3.375C106.5 2.75368 107.004 2.25 107.625 2.25C108.246 2.25 108.75 2.75368 108.75 3.375Z" fill="white"/>
<path fill-rule="evenodd" clip-rule="evenodd" d="M103.5 11.25C105.571 11.25 107.25 9.57107 107.25 7.5C107.25 5.42893 105.571 3.75 103.5 3.75C101.429 3.75 99.75 5.42893 99.75 7.5C99.75 9.57107 101.429 11.25 103.5 11.25ZM103.5 9.75C104.743 9.75 105.75 8.74264 105.75 7.5C105.75 6.25736 104.743 5.25 103.5 5.25C102.257 5.25 101.25 6.25736 101.25 7.5C101.25 8.74264 102.257 9.75 103.5 9.75Z" fill="white"/>
<path fill-rule="evenodd" clip-rule="evenodd" d="M96 7.2C96 4.67976 96 3.41965 96.4905 2.45704C96.9219 1.61031 97.6103 0.921901 98.457 0.490471C99.4196 0 100.68 0 103.2 0H103.8C106.32 0 107.58 0 108.543 0.490471C109.39 0.921901 110.078 1.61031 110.51 2.45704C111 3.41965 111 4.67976 111 7.2V7.8C111 10.3202 111 11.5804 110.51 12.543C110.078 13.3897 109.39 14.0781 108.543 14.5095C107.58 15 106.32 15 103.8 15H103.2C100.68 15 99.4196 15 98.457 14.5095C97.6103 14.0781 96.9219 13.3897 96.4905 12.543C96 11.5804 96 10.3202 96 7.8V7.2ZM103.2 1.5H103.8C105.085 1.5 105.958 1.50117 106.633 1.55633C107.291 1.61006 107.627 1.70745 107.862 1.82698C108.426 2.1146 108.885 2.57354 109.173 3.13803C109.293 3.37263 109.39 3.70893 109.444 4.36656C109.499 5.04169 109.5 5.91513 109.5 7.2V7.8C109.5 9.08487 109.499 9.95831 109.444 10.6334C109.39 11.2911 109.293 11.6274 109.173 11.862C108.885 12.4265 108.426 12.8854 107.862 13.173C107.627 13.2926 107.291 13.3899 106.633 13.4437C105.958 13.4988 105.085 13.5 103.8 13.5H103.2C101.915 13.5 101.042 13.4988 100.367 13.4437C99.7089 13.3899 99.3726 13.2926 99.138 13.173C98.5735 12.8854 98.1146 12.4265 97.827 11.862C97.7074 11.6274 97.6101 11.2911 97.5563 10.6334C97.5012 9.95831 97.5 9.08487 97.5 7.8V7.2C97.5 5.91513 97.5012 5.04169 97.5563 4.36656C97.6101 3.70893 97.7074 3.37263 97.827 3.13803C98.1146 2.57354 98.5735 2.1146 99.138 1.82698C99.3726 1.70745 99.7089 1.61006 100.367 1.55633C101.042 1.50117 101.915 1.5 103.2 1.5Z" fill="white"/>
</g>
</g>
</g>
</g>
</g>
</g>
<defs>
<clipPath id="clip0_0_1">
<rect width="1440" height="5109" fill="white" transform="translate(-135 -4925)"/>
</clipPath>
</defs>
</svg>
